<?xml version="1.0" encoding="UTF-8"?>
<!DOCTYPE svg PUBLIC "-//W3C//DTD SVG 1.1//EN" "http://www.w3.org/Graphics/SVG/1.1/DTD/svg11.dtd">
<svg xmlns="http://www.w3.org/2000/svg" style="background-color: rgb(255, 255, 255);" xmlns:xlink="http://www.w3.org/1999/xlink" version="1.1" width="800px" height="400px" viewBox="-0.5 -0.5 181 71"><g><rect x="0" y="0" width="30" height="70" fill="rgb(255, 255, 255)" stroke="rgb(0, 0, 0)" pointer-events="all"/><rect x="30" y="0" width="40" height="70" fill="rgb(255, 255, 255)" stroke="rgb(0, 0, 0)" pointer-events="all"/><rect x="150" y="0" width="30" height="70" fill="rgb(255, 255, 255)" stroke="rgb(0, 0, 0)" pointer-events="all"/><rect x="70" y="0" width="80" height="70" fill="rgb(255, 255, 255)" stroke="rgb(0, 0, 0)" pointer-events="all"/><rect x="35.5" y="20" width="29" height="30" fill="none" stroke="none" pointer-events="all"/><path d="M 64.5 38 L 62.48 23.37 C 62.48 23.37 62.03 20 58.75 20 L 41.25 20 C 37.97 20 37.51 23.37 37.51 23.37 L 35.5 38 L 36.3 42.84 L 35.79 43.51 L 35.79 46.94 L 37.97 46.94 L 37.97 50 L 43.26 50 L 43.26 46.94 L 56.73 46.94 L 56.73 50 L 62.02 50 L 62.02 46.94 L 64.21 46.94 L 64.21 43.51 L 63.69 42.84 L 64.5 38 Z M 43.99 20.73 L 56.01 20.73 L 56.01 24.16 L 43.99 24.16 L 43.99 20.73 Z M 38.06 25.88 L 43.47 25.26 L 49.16 25.26 L 49.16 34.57 L 37.02 34.57 L 38.06 25.88 Z M 43.05 40.88 C 43.05 41.62 42.48 42.23 41.78 42.23 C 41.25 42.23 40.79 41.87 40.6 41.37 C 40.42 41.87 39.96 42.23 39.43 42.23 C 38.73 42.23 38.16 41.62 38.16 40.88 C 38.16 40.13 38.73 39.53 39.43 39.53 C 39.96 39.53 40.42 39.89 40.6 40.39 C 40.79 39.89 41.25 39.53 41.78 39.53 C 42.49 39.53 43.05 40.13 43.05 40.88 Z M 62.14 44.19 L 37.86 44.19 L 37.86 43.7 L 62.14 43.7 L 62.14 44.19 Z M 56.95 40.88 C 56.95 40.13 57.51 39.53 58.21 39.53 C 58.75 39.53 59.21 39.89 59.39 40.39 C 59.58 39.89 60.04 39.53 60.57 39.53 C 61.27 39.53 61.84 40.13 61.84 40.88 C 61.84 41.62 61.27 42.23 60.57 42.23 C 60.03 42.23 59.58 41.87 59.39 41.37 C 59.21 41.87 58.75 42.23 58.21 42.23 C 57.51 42.23 56.95 41.62 56.95 40.88 Z M 50.83 34.57 L 50.83 25.26 L 56.53 25.26 L 61.94 25.88 L 62.98 34.57 L 50.83 34.57 Z" fill="#000000" stroke="none" pointer-events="all"/><rect x="78.25" y="14.75" width="63.5" height="40.5" fill="none" stroke="none" pointer-events="all"/><path d="M 134.16 52.55 C 135.66 51.52 136.64 49.77 136.64 47.77 C 136.64 46.54 136.26 45.39 135.61 44.45 L 138.83 44.45 L 138.83 25.55 L 132.74 25.55 L 132.74 17.45 L 127.47 17.45 L 127.47 25.55 L 117.69 25.55 L 117.69 21.37 C 117.69 21.08 116.18 18.87 113.73 18.87 C 111.28 18.87 109.77 21.08 109.77 21.37 L 109.77 25.55 L 95.24 25.55 L 95.24 18.81 L 95.24 14.75 L 82.03 14.75 L 82.03 18.81 L 91.28 18.81 L 91.28 33.28 L 83.34 33.28 L 83.34 28.25 L 79.42 28.25 L 79.42 33.28 L 79.42 44.45 L 86.88 44.45 C 86.23 45.39 85.85 46.54 85.85 47.77 C 85.85 49.77 86.83 51.52 88.33 52.55 L 78.25 52.55 L 78.25 55.25 L 141.75 55.25 L 141.75 52.55 L 134.16 52.55 Z M 115.81 44.46 L 126.5 44.46 C 125.84 45.4 125.46 46.54 125.46 47.78 C 125.46 49.77 126.45 51.52 127.95 52.55 L 114.35 52.55 C 115.85 51.52 116.84 49.77 116.84 47.78 C 116.84 46.54 116.45 45.4 115.81 44.46 Z M 97.04 47.78 C 97.04 46.54 96.65 45.4 96 44.46 L 106.69 44.46 C 106.04 45.4 105.65 46.54 105.65 47.78 C 105.65 49.77 106.64 51.52 108.14 52.55 L 94.55 52.55 C 96.05 51.52 97.04 49.77 97.04 47.78 Z" fill="#000000" stroke="none" pointer-events="all"/><rect x="6.88" y="22.38" width="16.25" height="25.25" fill="none" stroke="none" pointer-events="all"/><path d="M 16 25.86 C 17.12 25.86 18 25.09 18 24.12 C 18 23.14 17.12 22.38 16 22.38 C 14.87 22.38 13.99 23.14 13.99 24.12 C 13.99 25.09 14.87 25.86 16 25.86 Z" fill="#000000" stroke="none" pointer-events="all"/><path d="M 7.24 35.44 L 8.56 35.33 L 8.59 31.28 L 10.98 29.97 C 10.98 29.97 10.6 32.63 10.6 34.03 C 10.6 35.25 10.55 36.23 10.55 36.23 L 7.48 46.85 L 9.65 47.63 L 13.08 37.92 L 15.47 40.55 L 18.2 47.2 L 20.64 46.35 L 17.9 39.29 L 14.88 35.17 L 15.73 29.77 L 17.61 33.19 L 22.46 34.63 L 23.13 33.57 L 18.69 31.33 C 18.69 31.33 17.61 28.85 16.73 27.3 C 16.43 26.77 15.22 26.6 14.73 26.56 C 13.3 26.47 12.56 26.89 11.38 27.43 C 10.19 27.97 6.88 30.14 6.88 30.14 L 7.24 35.44 Z" fill="#000000" stroke="none" pointer-events="all"/><rect x="156.88" y="22.38" width="16.25" height="25.25" fill="none" stroke="none" pointer-events="all"/><path d="M 166 25.86 C 167.12 25.86 168 25.09 168 24.12 C 168 23.14 167.12 22.38 166 22.38 C 164.87 22.38 163.99 23.14 163.99 24.12 C 163.99 25.09 164.87 25.86 166 25.86 Z" fill="#000000" stroke="none" pointer-events="all"/><path d="M 157.24 35.44 L 158.56 35.33 L 158.59 31.28 L 160.98 29.97 C 160.98 29.97 160.6 32.63 160.6 34.03 C 160.6 35.25 160.55 36.23 160.55 36.23 L 157.48 46.85 L 159.65 47.63 L 163.08 37.92 L 165.47 40.55 L 168.2 47.2 L 170.64 46.35 L 167.9 39.29 L 164.88 35.17 L 165.73 29.77 L 167.61 33.19 L 172.46 34.63 L 173.13 33.57 L 168.69 31.33 C 168.69 31.33 167.61 28.85 166.73 27.3 C 166.43 26.77 165.22 26.6 164.73 26.56 C 163.3 26.47 162.56 26.89 161.38 27.43 C 160.19 27.97 156.88 30.14 156.88 30.14 L 157.24 35.44 Z" fill="#000000" stroke="none" pointer-events="all"/></g></svg>
